<?xml version="1.0" encoding="UTF-8" standalone="no"?>
<!DOCTYPE svg PUBLIC "-//W3C//DTD SVG 1.1//EN"
 "http://www.w3.org/Graphics/SVG/1.1/DTD/svg11.dtd">
<!-- Generated by graphviz version 2.38.0 (20140413.2041)
 -->
<!-- Title: G Pages: 1 -->
<svg width="502pt" height="1265pt"
 viewBox="0.00 0.00 501.69 1265.00" xmlns="http://www.w3.org/2000/svg" xmlns:xlink="http://www.w3.org/1999/xlink">
<g id="graph0" class="graph" transform="scale(1 1) rotate(0) translate(4 1261)">
<title>G</title>
<polygon fill="white" stroke="none" points="-4,4 -4,-1261 497.69,-1261 497.69,4 -4,4"/>
<g id="clust1" class="cluster"><title>cluster_Global</title>
<path fill="none" stroke="gray" d="M158.182,-98C158.182,-98 473.69,-98 473.69,-98 479.69,-98 485.69,-104 485.69,-110 485.69,-110 485.69,-1237 485.69,-1237 485.69,-1243 479.69,-1249 473.69,-1249 473.69,-1249 158.182,-1249 158.182,-1249 152.182,-1249 146.182,-1243 146.182,-1237 146.182,-1237 146.182,-110 146.182,-110 146.182,-104 152.182,-98 158.182,-98"/>
<text text-anchor="middle" x="315.936" y="-1236.2" font-family="Times,serif" font-size="11.00" fill="gray">Global</text>
</g>
<!-- \\D5_Arr -->
<g id="node1" class="node"><title>\\D5_Arr</title>
<polygon fill="none" stroke="black" points="434.661,-1222 380.661,-1222 380.661,-1186 434.661,-1186 434.661,-1222"/>
<text text-anchor="middle" x="407.661" y="-1200.7" font-family="Times,serif" font-size="11.00">D5_Arr</text>
</g>
<!-- \\D5_Autoloader -->
<g id="node2" class="node"><title>\\D5_Autoloader</title>
<polygon fill="none" stroke="black" points="450.09,-1168 365.233,-1168 365.233,-1132 450.09,-1132 450.09,-1168"/>
<text text-anchor="middle" x="407.661" y="-1146.7" font-family="Times,serif" font-size="11.00">D5_Autoloader</text>
</g>
<!-- \\D5_BootstrapBuilder -->
<g id="node3" class="node"><title>\\D5_BootstrapBuilder</title>
<polygon fill="none" stroke="black" points="462.876,-1114 352.447,-1114 352.447,-1078 462.876,-1078 462.876,-1114"/>
<text text-anchor="middle" x="407.661" y="-1092.7" font-family="Times,serif" font-size="11.00">D5_BootstrapBuilder</text>
</g>
<!-- \\D5_Calender -->
<g id="node4" class="node"><title>\\D5_Calender</title>
<polygon fill="none" stroke="black" points="444.809,-682 370.514,-682 370.514,-646 444.809,-646 444.809,-682"/>
<text text-anchor="middle" x="407.661" y="-660.7" font-family="Times,serif" font-size="11.00">D5_Calender</text>
</g>
<!-- \\Iterator -->
<g id="node24" class="node"><title>\\Iterator</title>
<ellipse fill="none" stroke="black" cx="38.5847" cy="-693" rx="38.6695" ry="18"/>
<text text-anchor="middle" x="38.5847" y="-688.8" font-family="Times,serif" font-size="14.00" fill="gray">\Iterator</text>
</g>
<!-- \\D5_Calender&#45;&gt;\\Iterator -->
<g id="edge1" class="edge"><title>\\D5_Calender&#45;&gt;\\Iterator</title>
<path fill="none" stroke="black" stroke-dasharray="1,5" d="M370.46,-666.86C303.692,-672.135 161.211,-683.391 86.8963,-689.262"/>
<polygon fill="none" stroke="black" points="86.5708,-685.777 76.8776,-690.054 87.1222,-692.755 86.5708,-685.777"/>
</g>
<!-- \\D5_Config -->
<g id="node5" class="node"><title>\\D5_Config</title>
<polygon fill="none" stroke="black" points="440.06,-1006 375.263,-1006 375.263,-970 440.06,-970 440.06,-1006"/>
<text text-anchor="middle" x="407.661" y="-984.7" font-family="Times,serif" font-size="11.00">D5_Config</text>
</g>
<!-- \\D5_Cookie -->
<g id="node6" class="node"><title>\\D5_Cookie</title>
<polygon fill="none" stroke="black" points="440.881,-952 374.442,-952 374.442,-916 440.881,-916 440.881,-952"/>
<text text-anchor="middle" x="407.661" y="-930.7" font-family="Times,serif" font-size="11.00">D5_Cookie</text>
</g>
<!-- \\D5_Core -->
<g id="node7" class="node"><title>\\D5_Core</title>
<polygon fill="none" stroke="black" points="435.989,-898 379.334,-898 379.334,-862 435.989,-862 435.989,-898"/>
<text text-anchor="middle" x="407.661" y="-876.7" font-family="Times,serif" font-size="11.00">D5_Core</text>
</g>
<!-- \\D5_DB_Connection_Mysql -->
<g id="node8" class="node"><title>\\D5_DB_Connection_Mysql</title>
<polygon fill="none" stroke="black" points="477.718,-844 337.605,-844 337.605,-808 477.718,-808 477.718,-844"/>
<text text-anchor="middle" x="407.661" y="-822.7" font-family="Times,serif" font-size="11.00">D5_DB_Connection_Mysql</text>
</g>
<!-- \\D5_DB_Connection -->
<g id="node10" class="node"><title>\\D5_DB_Connection</title>
<polygon fill="none" stroke="black" points="260.841,-952 153.962,-952 153.962,-916 260.841,-916 260.841,-952"/>
<text text-anchor="start" x="184.8" y="-936.2" font-family="Times,serif" font-size="11.00">«abstract»</text>
<text text-anchor="start" x="162.182" y="-925.2" font-family="Times,serif" font-size="11.00">D5_DB_Connection</text>
</g>
<!-- \\D5_DB_Connection_Mysql&#45;&gt;\\D5_DB_Connection -->
<g id="edge2" class="edge"><title>\\D5_DB_Connection_Mysql&#45;&gt;\\D5_DB_Connection</title>
<path fill="none" stroke="black" d="M357.145,-844.067C350.5,-846.868 343.84,-849.876 337.633,-853 304.206,-869.827 268.298,-892.764 242.837,-909.934"/>
<polygon fill="none" stroke="black" points="240.589,-907.23 234.288,-915.748 244.525,-913.019 240.589,-907.23"/>
</g>
<!-- \\D5_DB_Connection_PDO -->
<g id="node9" class="node"><title>\\D5_DB_Connection_PDO</title>
<polygon fill="none" stroke="black" points="474.605,-1060 340.718,-1060 340.718,-1024 474.605,-1024 474.605,-1060"/>
<text text-anchor="middle" x="407.661" y="-1038.7" font-family="Times,serif" font-size="11.00">D5_DB_Connection_PDO</text>
</g>
<!-- \\D5_DB_Connection_PDO&#45;&gt;\\D5_DB_Connection -->
<g id="edge3" class="edge"><title>\\D5_DB_Connection_PDO&#45;&gt;\\D5_DB_Connection</title>
<path fill="none" stroke="black" d="M357.145,-1023.93C350.5,-1021.13 343.84,-1018.12 337.633,-1015 304.206,-998.173 268.298,-975.236 242.837,-958.066"/>
<polygon fill="none" stroke="black" points="244.525,-954.981 234.288,-952.252 240.589,-960.77 244.525,-954.981"/>
</g>
<!-- \\D5_DB_CrudModel -->
<g id="node11" class="node"><title>\\D5_DB_CrudModel</title>
<polygon fill="none" stroke="black" points="461.106,-628 354.217,-628 354.217,-592 461.106,-592 461.106,-628"/>
<text text-anchor="start" x="385.06" y="-612.2" font-family="Times,serif" font-size="11.00">«abstract»</text>
<text text-anchor="start" x="362.44" y="-601.2" font-family="Times,serif" font-size="11.00">D5_DB_CrudModel</text>
</g>
<!-- \\ArrayAccess -->
<g id="node25" class="node"><title>\\ArrayAccess</title>
<ellipse fill="none" stroke="black" cx="207.401" cy="-72" rx="58.465" ry="18"/>
<text text-anchor="middle" x="207.401" y="-67.8" font-family="Times,serif" font-size="14.00" fill="gray">\ArrayAccess</text>
</g>
<!-- \\D5_DB_CrudModel&#45;&gt;\\ArrayAccess -->
<g id="edge4" class="edge"><title>\\D5_DB_CrudModel&#45;&gt;\\ArrayAccess</title>
<path fill="none" stroke="black" stroke-dasharray="1,5" d="M354.313,-596.636C347.947,-593.103 342.12,-588.639 337.633,-583 200.862,-411.095 402.909,-265.503 265.633,-94 264.336,-92.3794 262.905,-90.8781 261.367,-89.4873"/>
<polygon fill="none" stroke="black" points="263.081,-86.4094 252.919,-83.413 258.995,-92.0927 263.081,-86.4094"/>
</g>
<!-- \\D5_DB_Resultset_Mysql -->
<g id="node12" class="node"><title>\\D5_DB_Resultset_Mysql</title>
<polygon fill="none" stroke="black" points="472.336,-736 342.987,-736 342.987,-700 472.336,-700 472.336,-736"/>
<text text-anchor="middle" x="407.661" y="-714.7" font-family="Times,serif" font-size="11.00">D5_DB_Resultset_Mysql</text>
</g>
<!-- \\D5_DB_Resultset -->
<g id="node14" class="node"><title>\\D5_DB_Resultset</title>
<polygon fill="none" stroke="black" points="255.458,-736 159.345,-736 159.345,-700 255.458,-700 255.458,-736"/>
<text text-anchor="start" x="184.8" y="-720.2" font-family="Times,serif" font-size="11.00">«abstract»</text>
<text text-anchor="start" x="167.373" y="-709.2" font-family="Times,serif" font-size="11.00">D5_DB_Resultset</text>
</g>
<!-- \\D5_DB_Resultset_Mysql&#45;&gt;\\D5_DB_Resultset -->
<g id="edge5" class="edge"><title>\\D5_DB_Resultset_Mysql&#45;&gt;\\D5_DB_Resultset</title>
<path fill="none" stroke="black" d="M342.839,-718C317.978,-718 289.709,-718 265.53,-718"/>
<polygon fill="none" stroke="black" points="265.439,-714.5 255.439,-718 265.439,-721.5 265.439,-714.5"/>
</g>
<!-- \\D5_DB_Resultset_PDO -->
<g id="node13" class="node"><title>\\D5_DB_Resultset_PDO</title>
<polygon fill="none" stroke="black" points="469.224,-790 346.099,-790 346.099,-754 469.224,-754 469.224,-790"/>
<text text-anchor="middle" x="407.661" y="-768.7" font-family="Times,serif" font-size="11.00">D5_DB_Resultset_PDO</text>
</g>
<!-- \\D5_DB_Resultset_PDO&#45;&gt;\\D5_DB_Resultset -->
<g id="edge6" class="edge"><title>\\D5_DB_Resultset_PDO&#45;&gt;\\D5_DB_Resultset</title>
<path fill="none" stroke="black" d="M345.83,-755.431C320.205,-748.452 290.546,-740.374 265.354,-733.512"/>
<polygon fill="none" stroke="black" points="266.147,-730.101 255.578,-730.85 264.307,-736.855 266.147,-730.101"/>
</g>
<!-- \\D5_DB_Resultset&#45;&gt;\\Iterator -->
<g id="edge7" class="edge"><title>\\D5_DB_Resultset&#45;&gt;\\Iterator</title>
<path fill="none" stroke="black" stroke-dasharray="1,5" d="M159.045,-710.903C136.073,-707.46 108.585,-703.341 85.7702,-699.922"/>
<polygon fill="none" stroke="black" points="86.0581,-696.426 75.6498,-698.405 85.0206,-703.348 86.0581,-696.426"/>
</g>
<!-- \\D5_DBException -->
<g id="node15" class="node"><title>\\D5_DBException</title>
<polygon fill="none" stroke="black" points="454.982,-574 360.341,-574 360.341,-538 454.982,-538 454.982,-574"/>
<text text-anchor="middle" x="407.661" y="-552.7" font-family="Times,serif" font-size="11.00">D5_DBException</text>
</g>
<!-- \\Exception -->
<g id="node26" class="node"><title>\\Exception</title>
<ellipse fill="none" stroke="black" cx="207.401" cy="-18" rx="48.3341" ry="18"/>
<text text-anchor="middle" x="207.401" y="-13.8" font-family="Times,serif" font-size="14.00" fill="gray">\Exception</text>
</g>
<!-- \\D5_DBException&#45;&gt;\\Exception -->
<g id="edge8" class="edge"><title>\\D5_DBException&#45;&gt;\\Exception</title>
<path fill="none" stroke="black" d="M360.245,-545.597C351.616,-541.699 343.487,-536.347 337.633,-529 202.104,-358.916 395.307,-219.59 265.633,-45 262.56,-40.8616 258.69,-37.3332 254.419,-34.3302"/>
<polygon fill="none" stroke="black" points="256.195,-31.3137 245.817,-29.1806 252.599,-37.3199 256.195,-31.3137"/>
</g>
<!-- \\D5_DB -->
<g id="node16" class="node"><title>\\D5_DB</title>
<polygon fill="none" stroke="black" points="434.661,-520 380.661,-520 380.661,-484 434.661,-484 434.661,-520"/>
<text text-anchor="middle" x="407.661" y="-498.7" font-family="Times,serif" font-size="11.00">D5_DB</text>
</g>
<!-- \\D5_File -->
<g id="node17" class="node"><title>\\D5_File</title>
<polygon fill="none" stroke="black" points="434.661,-466 380.661,-466 380.661,-430 434.661,-430 434.661,-466"/>
<text text-anchor="middle" x="407.661" y="-444.7" font-family="Times,serif" font-size="11.00">D5_File</text>
</g>
<!-- \\D5_Form -->
<g id="node18" class="node"><title>\\D5_Form</title>
<polygon fill="none" stroke="black" points="436.943,-412 378.38,-412 378.38,-376 436.943,-376 436.943,-412"/>
<text text-anchor="middle" x="407.661" y="-390.7" font-family="Times,serif" font-size="11.00">D5_Form</text>
</g>
<!-- \\D5_Input -->
<g id="node19" class="node"><title>\\D5_Input</title>
<polygon fill="none" stroke="black" points="436.825,-358 378.498,-358 378.498,-322 436.825,-322 436.825,-358"/>
<text text-anchor="middle" x="407.661" y="-336.7" font-family="Times,serif" font-size="11.00">D5_Input</text>
</g>
<!-- \\D5_LateBinding -->
<g id="node20" class="node"><title>\\D5_LateBinding</title>
<polygon fill="none" stroke="black" points="452.595,-304 362.728,-304 362.728,-268 452.595,-268 452.595,-304"/>
<text text-anchor="middle" x="407.661" y="-282.7" font-family="Times,serif" font-size="11.00">D5_LateBinding</text>
</g>
<!-- \\D5_Security -->
<g id="node21" class="node"><title>\\D5_Security</title>
<polygon fill="none" stroke="black" points="443.264,-250 372.059,-250 372.059,-214 443.264,-214 443.264,-250"/>
<text text-anchor="middle" x="407.661" y="-228.7" font-family="Times,serif" font-size="11.00">D5_Security</text>
</g>
<!-- \\D5_Session -->
<g id="node22" class="node"><title>\\D5_Session</title>
<polygon fill="none" stroke="black" points="441.724,-196 373.599,-196 373.599,-160 441.724,-160 441.724,-196"/>
<text text-anchor="middle" x="407.661" y="-174.7" font-family="Times,serif" font-size="11.00">D5_Session</text>
</g>
<!-- \\D5_Smarty -->
<g id="node23" class="node"><title>\\D5_Smarty</title>
<polygon fill="none" stroke="black" points="440.881,-142 374.442,-142 374.442,-106 440.881,-106 440.881,-142"/>
<text text-anchor="middle" x="407.661" y="-120.7" font-family="Times,serif" font-size="11.00">D5_Smarty</text>
</g>
</g>
</svg>
